<?xml version="1.0" encoding="utf-8"?>
<!-- Generator: Adobe Illustrator 16.0.0, SVG Export Plug-In . SVG Version: 6.00 Build 0)  -->
<!DOCTYPE svg PUBLIC "-//W3C//DTD SVG 1.1//EN" "http://www.w3.org/Graphics/SVG/1.1/DTD/svg11.dtd">
<svg version="1.1" xmlns="http://www.w3.org/2000/svg" xmlns:xlink="http://www.w3.org/1999/xlink" x="0px" y="0px"
	 width="81.333px" height="77.207px" viewBox="0 0 81.333 77.207" enable-background="new 0 0 81.333 77.207" xml:space="preserve">
<g id="Layer_1">
</g>
<g id="Layer_2">
	<g>
		<path fill="#FFFFFF" d="M34.121,17.003c0.583-1.499,0.771-3.602-1.234-5.606c-3.672-3.671-7.099-0.006-7.099-0.006
			S6.955,29.706,6.236,31.821c-0.718,2.116,0,17.559,0,17.559l19.396,20.116c0,0,2.993,3.51,6.824,3.51
			c3.831,0,4.993-0.475,7.084-2.554c2.573-2.557,30.839-30.648,30.839-30.648s5.992-5.231,3.688-9.259
			c-1.623-2.834-4.535-3.354-6.45-1.916c-1.381,1.035-4.217,3.482-2.863,1.916c1.904-2.207,6.681-6.731,8.17-8.581
			c2.022-2.511,2.274-4.31,0.719-6.228c-1.879-2.312-4.271-2.833-6.745-0.916c-0.942,0.729-3.188,2.952-2.555,2.183
			c1.687-2.054,5.874-7.938,2.076-10.724c-3.366-2.466-8.345,1.559-10.435,3.694c-1.155,1.184,0.589-0.475,0.641-2.136
			c0.036-1.146-0.382-2.484-1.899-3.745c-2.516-2.089-5.905-0.141-8.381,1.948c-2.436,2.052-10.735,9.977-10.735,9.977
			S33.635,18.245,34.121,17.003z"/>
		<path fill="#D22828" d="M71.622,26.183c1.176-1.203,2.196-2.274,2.794-3.016c1.651-2.053,3.523-5.177,0.713-8.637
			c-1.879-2.313-3.874-2.8-5.217-2.8c-0.132,0-0.264,0.007-0.395,0.014c0.306-1.05,0.445-2.129,0.314-3.172
			c-0.197-1.563-0.985-2.889-2.28-3.838c-1.038-0.761-2.235-1.146-3.56-1.146c-2.063,0-4.119,0.968-5.804,2.083
			c-0.355-0.986-1.029-2.05-2.237-3.053c-2.717-2.259-6.569-1.644-10.84,1.957c-1.767,1.487-6.427,5.88-9.022,8.344
			c-0.352-1.03-0.97-2-1.848-2.877c-1.456-1.455-3.08-2.194-4.829-2.194c-2.852,0-4.81,2.008-4.959,2.172
			C15.711,18.52,5.139,29.096,4.423,31.204c-0.754,2.219-0.321,13.514-0.101,18.267l0.034,0.721l19.865,20.6
			c0.449,0.508,3.807,4.131,8.235,4.131c4.263,0,5.917-0.611,8.435-3.11l30.797-30.608c2.662-2.346,6.461-7.38,4.041-11.609
			C74.745,27.871,73.275,26.672,71.622,26.183z M69.12,38.36L38.19,69.095c-1.68,1.667-2.308,1.995-5.733,1.995
			c-2.877,0-5.346-2.814-5.366-2.837L8.118,48.572c-0.301-6.846-0.413-14.656-0.083-16.066c1.028-1.735,10.448-11.327,19.139-19.78
			c0.01-0.011,1.019-1.021,2.237-1.021c0.705,0,1.398,0.374,2.121,1.096c0.949,0.95,1.257,1.982,0.953,3.141L21.951,27.029
			l-0.137,0.354c-0.397,1.031-0.446,2.586,0.726,3.576c1.326,1.121,4.495,4.148,5.286,8.029c0.983,4.815-2.978,9.303-3.017,9.348
			l1.423,1.283l1.418,1.286c0.217-0.239,5.306-5.945,3.931-12.685c-0.89-4.355-3.818-7.697-5.877-9.579l8.515-8.965
			c0.714-0.048,1.377-0.57,2.771-2.133c0.732-0.698,8.33-8.138,10.59-10.039c1.829-1.545,3.488-2.394,4.669-2.394
			c0.483,0,0.88,0.145,1.252,0.453c0.839,0.696,1.234,1.421,1.209,2.213c-0.005,0.148-0.08,0.58-0.619,1.382L36.487,26.838
			l2.715,2.702l17.689-17.761c0.093-0.085,0.172-0.164,0.24-0.236l0.223-0.23c1.894-1.936,4.681-3.892,6.637-3.892
			c0.507,0,0.919,0.129,1.295,0.405c0.448,0.327,0.678,0.704,0.743,1.222c0.211,1.681-1.252,4.253-2.727,6.178L43.455,34.477
			l2.668,2.75l18.855-18.289c0.387-0.173,0.776-0.528,1.5-1.191c0.517-0.475,1.224-1.125,1.592-1.41
			c0.662-0.513,1.282-0.771,1.842-0.771c0.926,0,1.731,0.755,2.243,1.387c0.607,0.746,1.181,1.456-0.723,3.818
			c-0.724,0.898-2.418,2.622-4.058,4.283c-1.233,1.246-2.494,2.536-3.433,3.56l-0.012-0.012L50.521,41.538l2.661,2.756
			l11.655-11.243c0.586-0.137,1.124-0.602,2.64-1.814c0.46-0.366,0.927-0.804,1.289-1.075c0.342-0.257,0.747-0.392,1.171-0.392
			c0.94,0,1.839,0.628,2.467,1.726C73.64,33.656,70.363,37.268,69.12,38.36z"/>
	</g>
</g>
</svg>
