<?xml version="1.0" encoding="utf-8"?>
<!-- Generator: Adobe Illustrator 16.0.0, SVG Export Plug-In . SVG Version: 6.00 Build 0)  -->
<!DOCTYPE svg PUBLIC "-//W3C//DTD SVG 1.1//EN" "http://www.w3.org/Graphics/SVG/1.1/DTD/svg11.dtd">
<svg version="1.1" xmlns="http://www.w3.org/2000/svg" xmlns:xlink="http://www.w3.org/1999/xlink" x="0px" y="0px"
	 width="81.333px" height="77.207px" viewBox="0 0 81.333 77.207" enable-background="new 0 0 81.333 77.207" xml:space="preserve">
<g id="Layer_1">
</g>
<g id="Layer_2">
	<g>
		<path fill="#FFFFFF" d="M32.561,21.516c1.781-0.05,3.515,0.345,5.377,1.65c2.064,1.449,2.349,2.115,2.797,1.782
			c0.827-0.613,18.361-13.386,18.361-13.386s4.885-3.286,8.072,0.334c2.626,2.982,1.027,6.554-1.438,8.458
			C63.265,22.258,43.174,37.77,43.174,37.77s26.435,1.119,28.239,1.242c1.803,0.125,4.995,0.697,5.432,5.668
			c0.476,5.41-4.022,5.914-6.469,5.914c-2.447,0-18.743,0-18.743,0s3.627,0.309,3.815,5.447c0.165,4.498-6.178,4.961-6.178,4.961
			s1.866,1.57,1.368,5.634c-0.322,2.639-1.928,5.428-5.536,5.428c-2.715,0-30.229,0.144-32.281,0.02
			c-2.053-0.124-7.63-2.478-7.796-7.122c-0.165-4.645-0.828-26.7-0.828-26.7s14.754-13.434,15.844-14.348
			C22.961,21.472,30.779,21.565,32.561,21.516z"/>
		<path fill="#808080" d="M71.516,37.523c-1.323-0.092-15.183-0.688-24.19-1.071l19.319-14.917c1.891-1.46,3.14-3.571,3.339-5.649
			c0.172-1.802-0.413-3.521-1.694-4.976c-1.271-1.443-2.953-2.208-4.863-2.208c-2.721,0-5.063,1.556-5.207,1.654
			c-0.647,0.47-14.426,10.507-17.708,12.905c-0.377-0.313-0.932-0.766-1.716-1.317c-1.872-1.313-3.761-1.926-5.945-1.926
			l-0.881,0.017c-4.564,0.075-10.156,0.455-12.885,2.742c-1.101,0.92-15.288,13.844-15.89,14.394l-0.508,0.462l0.021,0.687
			c0.006,0.221,0.665,22.125,0.828,26.719c0.202,5.652,6.662,8.431,9.198,8.584c0.275,0.017,1.112,0.068,11.558,0.068
			c6.015,0,12.968-0.017,17.18-0.025l3.633-0.009c4.576,0,6.625-3.43,7.018-6.639c0.245-1.999,0.082-3.521-0.193-4.617
			c1.188-0.233,2.612-0.738,3.646-1.811c0.95-0.984,1.423-2.3,1.367-3.802c-0.06-1.637-0.501-2.931-1.138-3.939
			c5.313,0.163,12.999,0.383,14.61,0.346c3.976-0.099,7.968-2.525,7.925-7.727C78.288,39.553,73.854,37.685,71.516,37.523z
			 M59.927,12.804c0.017-0.011,1.705-1.114,3.499-1.114c1.057,0,1.916,0.39,2.622,1.192c0.731,0.832,1.057,1.746,0.963,2.719
			c-0.122,1.271-0.941,2.606-2.192,3.571L44.158,35.125c-0.383,0.296-0.65,0.585-0.845,0.864c-0.333-3.673-1.013-8.013-1.355-10.085
			C44.51,24.034,59.809,12.892,59.927,12.804z M49.157,66.655c-0.148,1.207-0.838,4.016-4.054,4.016l-3.64,0.008
			c-2.024,0.005-4.682,0.012-7.562,0.017l0.009-0.075c-0.342-0.045-3.341-0.548-3.341-3.825c0-2.3,1.317-3.677,1.899-4.178
			c0.193,0.016,0.386,0.03,0.589,0.03c2.86,0,12.749-0.033,15.811-0.046C49.119,63.284,49.41,64.587,49.157,66.655z M53.423,58.509
			c-0.779,0.809-2.368,1.085-3.58,1.085c-0.002,0-0.004,0-0.006,0l-0.17,0.065v-0.046c0,0-0.386,0.002-1.118,0.004l-1.768-0.063
			l0.063,0.069c-4.119,0.015-11.402,0.038-13.793,0.038c-3.085,0-3.324-2.918-3.324-3.813c0-2.161,1.783-3.048,3.451-3.155
			c2.357-0.154,13.897-0.045,17.396-0.008c0.248,0.032,3.246,0.476,3.382,4.206C53.983,57.595,53.813,58.104,53.423,58.509z
			 M70.339,50.209c-0.112,0.003-0.239,0.006-0.417,0.006c-3.103,0-15.254-0.377-18.254-0.483v-0.021
			c-1-0.008-15.772-0.185-18.657,0.002c-3.675,0.24-6.25,2.764-6.25,6.136c0,2.215,0.835,4.437,2.636,5.711
			c-0.895,1.145-1.809,2.882-1.809,5.235c0,1.643,0.461,2.919,1.142,3.908c-1.499,0.002-2.995,0.003-4.438,0.003
			c-8.56,0-10.913-0.035-11.379-0.063c-1.444-0.087-6.263-2.039-6.393-5.71c-0.147-4.125-0.694-22.247-0.808-26.017
			C10.925,34.166,20.185,25.749,21,25.065c1.506-1.262,5.213-1.95,11.018-2.047l0.832-0.015c1.562,0,2.866,0.427,4.23,1.385
			c0.734,0.515,1.23,0.926,1.592,1.226c0.084,0.07,0.162,0.131,0.242,0.196c0.393,2.339,1.792,10.989,1.589,14.419
			c-0.162,2.706-1.247,4.013-3.52,4.232c-1.416,0.136-3.18-0.155-3.602-2.315c-0.146-0.746-0.215-2.743-0.276-4.506
			c-0.1-2.876-0.18-4.688-0.438-5.59c-0.256-0.897-1.018-1.469-1.985-1.491c-1.849-0.041-5.003,2.288-5.469,3.691
			c-0.134,0.4-0.169,0.914-0.237,2.037c-0.124,2.065-0.381,6.363-1.882,7.966c-1.724,1.84-6.323,2.715-7.95,2.896l0.33,2.969
			c0.71-0.079,7.014-0.853,9.799-3.824c2.238-2.387,2.517-7.045,2.685-9.826c0.027-0.454,0.06-1.006,0.081-1.21
			c0.306-0.391,1.195-1.058,1.892-1.436c0.092,1.048,0.147,2.65,0.191,3.922c0.071,2.056,0.139,3.998,0.331,4.976
			c0.635,3.25,3.239,5.059,6.818,4.713c2.177-0.208,5.878-1.401,6.212-7.025c0.032-0.522,0.031-1.143,0.005-1.828
			c0.75,0.72,1.977,0.781,2.453,0.802c7.161,0.304,23.968,1.024,25.369,1.12c0.41,0.027,4.004,0.409,4.042,4.993
			C75.381,48.878,72.782,50.149,70.339,50.209z"/>
	</g>
</g>
</svg>
