<?xml version="1.0" encoding="utf-8"?>
<!-- Generator: Adobe Illustrator 16.0.0, SVG Export Plug-In . SVG Version: 6.00 Build 0)  -->
<!DOCTYPE svg PUBLIC "-//W3C//DTD SVG 1.1//EN" "http://www.w3.org/Graphics/SVG/1.1/DTD/svg11.dtd">
<svg version="1.1" xmlns="http://www.w3.org/2000/svg" xmlns:xlink="http://www.w3.org/1999/xlink" x="0px" y="0px"
	 width="630.336px" height="70.626px" viewBox="0 0 630.336 70.626" enable-background="new 0 0 630.336 70.626"
	 xml:space="preserve">
<g id="Layer_1">
</g>
<g id="Layer_2">
	<g>
		<g>
			<path fill="#D22828" d="M32.511,31.183h19.035c4.098,5.083,6.147,10.444,6.147,16.083c0,6.559-2.402,12.067-7.205,16.526
				c-4.804,4.46-10.714,6.689-17.731,6.689c-9.116,0-16.854-3.459-23.214-10.378C3.181,53.185,0,44.758,0,34.822
				c0-9.967,3.237-18.263,9.714-24.887C16.189,3.313,24.28,0,33.986,0c3.312,0,6.985,0.672,11.018,2.017v19.968
				c-3.148-1.476-6.017-2.213-8.607-2.213c-4.689,0-8.517,1.458-11.484,4.376c-2.968,2.92-4.452,6.707-4.452,11.362
				c0,4.755,1.378,8.527,4.131,11.313c2.755,2.788,6.475,4.18,11.165,4.18c2.983,0,4.476-0.869,4.476-2.607
				c0-1.311-0.983-1.968-2.951-1.968h-4.771V31.183z"/>
			<path fill="#D22828" d="M91.68,50.413v19.036c-1.509,0.261-2.886,0.393-4.132,0.393c-7.377,0-13.526-2.426-18.443-7.279
				c-4.919-4.853-7.378-10.936-7.378-18.248c0-7.115,2.483-13.149,7.451-18.1c4.968-4.951,11.009-7.427,18.124-7.427
				c7.935,0,14.19,2.32,18.763,6.959c4.575,4.642,6.862,10.977,6.862,19.011v24.051H94.532V46.085c0-2.589-0.632-4.656-1.894-6.196
				c-1.262-1.542-2.959-2.312-5.09-2.312c-1.935,0-3.607,0.705-5.017,2.115c-1.41,1.41-2.115,3.082-2.115,5.017
				c0,2.033,0.639,3.706,1.918,5.016c1.279,1.312,2.902,1.969,4.87,1.969C88.81,51.693,90.302,51.266,91.68,50.413z"/>
			<path fill="#D22828" d="M190.932,68.809h-18.395V42.347c0-2.032-0.214-3.442-0.639-4.229c-0.426-0.787-1.197-1.18-2.312-1.18
				c-2.065,0-3.098,1.82-3.098,5.459v26.412h-18.396V42.347c0-2.032-0.221-3.442-0.664-4.229c-0.443-0.787-1.222-1.18-2.336-1.18
				c-2.033,0-3.049,1.82-3.049,5.459v26.412h-18.395V38.609c0-5.509,1.853-10.189,5.558-14.042
				c3.705-3.852,8.196-5.779,13.477-5.779c5.442,0,10.328,2.295,14.657,6.886c4.82-4.59,9.639-6.886,14.459-6.886
				c6.131,0,11.05,2.23,14.756,6.688c2.917,3.477,4.377,8.542,4.377,15.199V68.809z"/>
			<path fill="#D22828" d="M249.903,47.266h-27.887c-0.426-1.409-0.639-2.706-0.639-3.885c0-1.639,0.295-3.247,0.885-4.82h9.345
				c-0.657-3.64-2.706-5.46-6.148-5.46c-2.296,0-4.165,0.976-5.607,2.928c-1.443,1.951-2.164,4.45-2.164,7.5
				c0,3.18,0.696,5.755,2.091,7.722c1.393,1.966,3.221,2.95,5.484,2.95c1.835,0,3.606-0.917,5.312-2.754l10.476,12.591
				c-4.886,3.836-10.313,5.755-16.28,5.755c-7.279,0-13.395-2.442-18.346-7.329c-4.952-4.886-7.426-10.935-7.426-18.148
				c0-7.181,2.5-13.247,7.501-18.198c4.999-4.95,11.14-7.427,18.418-7.427c7.115,0,13.09,2.418,17.928,7.255
				c4.836,4.836,7.255,10.796,7.255,17.878C250.101,44.545,250.034,45.692,249.903,47.266z"/>
		</g>
		<g>
			<path fill="#D22828" d="M348.365,21.369v47.856h-19.968V2.089h26.02c11.411,0,20.345,2.59,26.805,7.771
				c7.673,6.197,11.509,14.607,11.509,25.23c0,10.165-3.279,18.461-9.838,24.887c-6.558,6.428-15,9.641-25.328,9.641
				c-1.214,0-3.197-0.066-5.952-0.196V49.7h3.197c11.64,0,17.459-4.869,17.459-14.608c0-9.148-5.723-13.722-17.165-13.722H348.365z"
				/>
			<path fill="#D22828" d="M427.65,19.697v19.674c-1.278-0.722-2.442-1.083-3.493-1.083c-3.343,0-5.016,2.558-5.016,7.672v23.265
				h-18.395V42.42c0-7.082,1.934-12.73,5.804-16.943c3.869-4.213,9.032-6.32,15.494-6.32
				C423.486,19.156,425.355,19.336,427.65,19.697z"/>
			<path fill="#D22828" d="M456.325,19.156c6.951,0,12.911,2.5,17.879,7.5c4.967,5.001,7.451,10.993,7.451,17.977
				c0,7.083-2.517,13.117-7.55,18.099c-5.034,4.984-11.107,7.477-18.223,7.477c-7.116,0-13.199-2.5-18.248-7.5
				c-5.048-5-7.573-11.025-7.573-18.076c0-7.18,2.525-13.222,7.573-18.124C442.683,21.607,448.915,19.156,456.325,19.156z
				 M455.833,37.305c-1.967,0-3.639,0.713-5.016,2.14c-1.377,1.426-2.066,3.172-2.066,5.238c0,2.034,0.697,3.771,2.09,5.213
				c1.394,1.443,3.058,2.165,4.992,2.165c1.969,0,3.648-0.722,5.042-2.165c1.393-1.442,2.09-3.18,2.09-5.213
				c0-2.066-0.688-3.812-2.065-5.238C459.522,38.018,457.833,37.305,455.833,37.305z"/>
			<path fill="#D22828" d="M533.052,69.226h-18.395V41.535c0-2.819-1.164-4.23-3.492-4.23c-2.297,0-3.443,1.411-3.443,4.23v27.691
				h-18.395V41.879c0-6.394,2.115-11.78,6.345-16.157c4.23-4.377,9.411-6.566,15.542-6.566c7.016,0,12.639,2.542,16.871,7.624
				c3.311,3.967,4.967,9.492,4.967,16.574V69.226z"/>
			<path fill="#D22828" d="M591.974,47.683h-27.887c-0.426-1.41-0.641-2.706-0.641-3.886c0-1.64,0.297-3.246,0.887-4.82h9.344
				c-0.656-3.64-2.705-5.46-6.148-5.46c-2.295,0-4.164,0.976-5.605,2.928c-1.443,1.95-2.164,4.45-2.164,7.5
				c0,3.181,0.695,5.754,2.09,7.722c1.395,1.966,3.221,2.95,5.484,2.95c1.836,0,3.605-0.917,5.313-2.754l10.475,12.591
				c-4.885,3.836-10.313,5.755-16.281,5.755c-7.277,0-13.393-2.443-18.344-7.329c-4.951-4.885-7.428-10.935-7.428-18.148
				c0-7.181,2.5-13.247,7.502-18.198c5-4.95,11.139-7.428,18.42-7.428c7.113,0,13.09,2.419,17.926,7.255s7.254,10.796,7.254,17.878
				C592.169,44.961,592.104,46.109,591.974,47.683z"/>
			<path fill="#D22828" d="M630.337,20.878v19.378c-2.59,0-4.369,0.483-5.336,1.451c-0.967,0.967-1.582,2.876-1.844,5.73
				c-0.854,9.476-4.525,16.165-11.018,20.067c-3.443,2.033-8.328,3.049-14.656,3.049h-2.559V51.077h0.836
				c2.951,0,5.059-0.615,6.32-1.845c1.262-1.229,1.992-3.384,2.189-6.468c0.262-5.017,0.729-8.541,1.402-10.574
				c0.67-2.032,2.041-4.049,4.107-6.049c3.605-3.509,8.605-5.263,15-5.263H630.337z"/>
		</g>
		<g>
			<path fill="#499784" d="M275.516,31.693c5.3,0,9.846,1.907,13.634,5.72c3.787,3.814,5.684,8.383,5.684,13.71
				c0,5.4-1.92,10.001-5.758,13.802c-3.84,3.8-8.472,5.702-13.897,5.702c-5.426,0-10.064-1.907-13.916-5.72
				c-3.851-3.813-5.776-8.409-5.776-13.784c0-5.477,1.925-10.083,5.776-13.823C265.114,33.563,269.865,31.693,275.516,31.693z
				 M275.141,45.533c-1.5,0-2.776,0.544-3.825,1.631c-1.051,1.088-1.576,2.419-1.576,3.996c0,1.549,0.532,2.875,1.595,3.975
				c1.063,1.101,2.331,1.651,3.807,1.651c1.5,0,2.782-0.55,3.844-1.651c1.063-1.1,1.594-2.426,1.594-3.975
				c0-1.577-0.525-2.908-1.575-3.996C277.954,46.077,276.665,45.533,275.141,45.533z"/>
			<path fill="#499784" d="M320.974,40.771v14.701h-6.263v14.404h-14.029V38.107c0-3.576,0.613-6.626,1.839-9.153
				c1.549-3.225,3.907-5.856,7.069-7.895c3.164-2.036,6.457-3.055,9.885-3.055l1.499,0.036v14.703
				c-0.325-0.024-0.563-0.037-0.713-0.037c-1.775,0-3.144,0.588-4.106,1.763c-0.963,1.176-1.444,2.851-1.444,5.027v1.275H320.974z"
				/>
		</g>
	</g>
</g>
</svg>
