<?xml version="1.0" encoding="utf-8"?>
<!-- Generator: Adobe Illustrator 16.0.0, SVG Export Plug-In . SVG Version: 6.00 Build 0)  -->
<!DOCTYPE svg PUBLIC "-//W3C//DTD SVG 1.1//EN" "http://www.w3.org/Graphics/SVG/1.1/DTD/svg11.dtd">
<svg version="1.1" xmlns="http://www.w3.org/2000/svg" xmlns:xlink="http://www.w3.org/1999/xlink" x="0px" y="0px" width="513px"
	 height="334px" viewBox="0 0 513 334" enable-background="new 0 0 513 334" xml:space="preserve">
<g id="Layer_1">
</g>
<g id="Layer_2">
	<g>
		<path fill="#499784" d="M6.136,135.403V119.08c0-0.502,0.251-0.754,0.753-0.754h5.098c1.289,0,2.478,0.285,3.566,0.854
			c0.619,0.318,1.113,0.824,1.481,1.52c0.368,0.694,0.553,1.511,0.553,2.448s-0.147,1.737-0.439,2.398
			c-0.293,0.661-0.645,1.167-1.055,1.519c-0.411,0.352-0.883,0.637-1.419,0.854c-0.821,0.335-1.632,0.502-2.436,0.502H8.345v6.981
			c0,0.368-0.335,0.552-1.004,0.552H7.14C6.47,135.955,6.136,135.771,6.136,135.403z M8.345,126.514h3.917
			c0.636,0,1.264-0.201,1.884-0.604c0.334-0.217,0.611-0.556,0.829-1.017c0.217-0.46,0.327-1.009,0.327-1.645
			c0-1.122-0.335-1.904-1.005-2.349c-0.669-0.443-1.465-0.665-2.386-0.665H8.345V126.514z"/>
		<path fill="#499784" d="M27.883,127.719v-1.181c0-1.406-0.921-2.109-2.762-2.109c-1.206,0-2.319,0.26-3.34,0.778
			c-0.352,0.185-0.544,0.276-0.578,0.276c-0.167,0-0.355-0.167-0.565-0.502s-0.314-0.586-0.314-0.753
			c0-0.353,0.49-0.708,1.469-1.067c0.979-0.36,2.155-0.54,3.528-0.54c1.373,0,2.494,0.348,3.365,1.042
			c0.87,0.695,1.306,1.662,1.306,2.9v5.625c0,1.005,0.042,1.733,0.125,2.185c0.117,0.62,0.176,0.946,0.176,0.979
			c0,0.201-0.159,0.348-0.477,0.439c-0.318,0.093-0.565,0.139-0.741,0.139s-0.297-0.018-0.364-0.051s-0.13-0.092-0.188-0.176
			c-0.059-0.083-0.104-0.163-0.138-0.238s-0.067-0.18-0.1-0.313c-0.034-0.134-0.063-0.239-0.088-0.314
			c-0.025-0.075-0.05-0.192-0.076-0.352c-0.025-0.159-0.046-0.264-0.063-0.313c-1.139,1.255-2.545,1.883-4.219,1.883
			c-1.29,0-2.328-0.317-3.114-0.954c-0.787-0.636-1.18-1.615-1.18-2.938c0-1.322,0.456-2.313,1.369-2.976
			c0.912-0.661,1.938-1.063,3.076-1.205C25.128,127.84,26.426,127.752,27.883,127.719z M21.806,132.163
			c0,1.373,0.711,2.06,2.134,2.06c0.82,0,1.528-0.15,2.122-0.452c0.594-0.301,1.201-0.729,1.821-1.28v-2.964
			c-2.093,0-3.44,0.118-4.043,0.352c-0.318,0.118-0.653,0.269-1.005,0.452C22.148,130.682,21.806,131.293,21.806,132.163z"/>
		<path fill="#499784" d="M36.27,140.576c0,0.368-0.335,0.553-1.004,0.553h-0.101c-0.67,0-1.004-0.185-1.004-0.553v-13.987
			c0-1.021-0.042-1.749-0.125-2.185c-0.117-0.604-0.176-0.93-0.176-0.979c0-0.201,0.159-0.348,0.477-0.439
			c0.318-0.092,0.565-0.139,0.741-0.139s0.297,0.017,0.364,0.051c0.067,0.033,0.129,0.088,0.188,0.163
			c0.058,0.075,0.104,0.15,0.138,0.226c0.033,0.075,0.066,0.176,0.1,0.302c0.034,0.125,0.063,0.226,0.088,0.301
			c0.025,0.075,0.05,0.185,0.076,0.327c0.025,0.143,0.046,0.238,0.063,0.288c1.206-1.255,2.544-1.883,4.018-1.883
			c1.473,0,2.649,0.619,3.528,1.858s1.318,2.829,1.318,4.771v0.226c0,2.06-0.469,3.671-1.406,4.834
			c-0.938,1.164-2.109,1.745-3.516,1.745s-2.662-0.427-3.767-1.28V140.576z M39.309,134.197h0.151
			c1.071-0.016,1.887-0.427,2.448-1.23s0.841-1.983,0.841-3.54c0-1.558-0.268-2.775-0.804-3.654s-1.352-1.318-2.448-1.318
			c-1.097,0-2.172,0.577-3.227,1.732v6.881C37.174,133.821,38.187,134.197,39.309,134.197z"/>
		<path fill="#499784" d="M49.278,134.424c-1.004-1.088-1.506-2.75-1.506-4.985c0-2.234,0.494-3.93,1.481-5.085
			s2.394-1.732,4.219-1.732c3.549,0,5.324,2.185,5.324,6.554c0,0.151-0.1,0.36-0.301,0.628c-0.201,0.269-0.376,0.402-0.527,0.402
			h-7.936c0.101,1.39,0.46,2.41,1.08,3.063c0.619,0.653,1.548,0.979,2.788,0.979c1.138,0,2.185-0.268,3.139-0.804
			c0.318-0.167,0.494-0.251,0.527-0.251c0.167,0,0.355,0.167,0.565,0.502c0.209,0.335,0.313,0.586,0.313,0.754
			c0,0.335-0.456,0.687-1.369,1.055s-1.963,0.552-3.151,0.552C51.831,136.056,50.283,135.512,49.278,134.424z M56.561,128.396
			c0-2.645-1.004-3.968-3.013-3.968c-2.16,0-3.332,1.323-3.516,3.968H56.561z"/>
		<path fill="#499784" d="M62.186,135.403v-8.814c0-1.021-0.042-1.749-0.125-2.185c-0.118-0.604-0.176-0.93-0.176-0.979
			c0-0.201,0.159-0.348,0.477-0.439c0.318-0.092,0.565-0.139,0.741-0.139s0.297,0.017,0.364,0.051
			c0.066,0.033,0.129,0.088,0.188,0.163s0.104,0.15,0.138,0.226s0.067,0.176,0.101,0.302c0.033,0.125,0.063,0.226,0.088,0.301
			s0.05,0.185,0.075,0.327c0.025,0.143,0.046,0.238,0.063,0.288c0.887-1.255,1.858-1.883,2.913-1.883
			c0.468,0,0.829,0.092,1.08,0.276c0.251,0.184,0.377,0.418,0.377,0.703c0,0.284-0.05,0.581-0.151,0.892
			c-0.101,0.31-0.218,0.464-0.352,0.464c-0.067,0-0.23-0.046-0.49-0.138c-0.26-0.092-0.569-0.139-0.929-0.139
			s-0.732,0.13-1.117,0.39c-0.386,0.26-0.67,0.515-0.854,0.766l-0.301,0.377v9.191c0,0.368-0.335,0.552-1.004,0.552H63.19
			C62.52,135.955,62.186,135.771,62.186,135.403z"/>
	</g>
	<g>
		<path fill="#499784" d="M451.845,134.498v-16.323c0-0.502,0.251-0.754,0.753-0.754h4.219c2.009,0,3.52,0.356,4.533,1.067
			c1.013,0.712,1.52,1.838,1.52,3.378c0,2.06-0.963,3.475-2.888,4.244v0.101c0.485,0.167,0.892,0.494,1.218,0.979
			c0.327,0.485,0.674,1.205,1.042,2.159l1.958,4.947c0.05,0.15,0.076,0.268,0.076,0.352c0,0.268-0.352,0.401-1.055,0.401h-0.251
			c-0.569,0-0.904-0.134-1.004-0.401l-1.909-4.922c-0.368-0.954-0.829-1.604-1.381-1.946c-0.553-0.343-1.34-0.515-2.361-0.515h-2.26
			v7.232c0,0.368-0.335,0.552-1.005,0.552h-0.201C452.179,135.05,451.845,134.866,451.845,134.498z M454.055,125.356h3.314
			c0.887,0,1.645-0.305,2.273-0.916s0.941-1.373,0.941-2.285s-0.301-1.611-0.904-2.097s-1.432-0.729-2.486-0.729h-3.139V125.356z"/>
		<path fill="#499784" d="M471.922,135.15c-1.884,0-3.324-0.568-4.319-1.707c-0.997-1.139-1.494-2.792-1.494-4.96
			s0.502-3.838,1.506-5.01c1.005-1.172,2.436-1.758,4.294-1.758s3.277,0.582,4.256,1.745c0.979,1.164,1.469,2.838,1.469,5.022
			s-0.481,3.842-1.444,4.973C475.228,134.586,473.805,135.15,471.922,135.15z M469.172,132.149c0.569,0.796,1.465,1.193,2.687,1.193
			s2.126-0.397,2.712-1.193c0.585-0.795,0.879-2.029,0.879-3.704c0-1.674-0.293-2.913-0.879-3.716
			c-0.586-0.804-1.49-1.206-2.712-1.206s-2.118,0.398-2.687,1.193c-0.569,0.795-0.854,2.034-0.854,3.717
			C468.318,130.115,468.603,131.354,469.172,132.149z"/>
		<path fill="#499784" d="M480.321,128.37c0-1.256,0.172-2.335,0.515-3.239c0.343-0.904,0.807-1.599,1.394-2.084
			c1.105-0.888,2.453-1.331,4.043-1.331c0.971,0,1.842,0.117,2.612,0.352s1.155,0.502,1.155,0.804c0,0.218-0.097,0.498-0.289,0.841
			c-0.192,0.344-0.364,0.515-0.515,0.515c-0.017,0-0.046-0.008-0.088-0.024c-0.042-0.017-0.075-0.029-0.101-0.038
			c-0.025-0.008-0.054-0.021-0.088-0.038c-0.904-0.401-1.816-0.603-2.737-0.603c-2.427,0-3.641,1.6-3.641,4.797
			c0,1.774,0.297,3.056,0.892,3.842c0.594,0.787,1.595,1.181,3.001,1.181c1.021,0,1.967-0.218,2.837-0.653
			c0.05-0.017,0.104-0.037,0.164-0.063c0.058-0.025,0.096-0.038,0.113-0.038c0.167,0,0.352,0.164,0.553,0.49
			c0.201,0.326,0.301,0.59,0.301,0.791c0,0.301-0.394,0.59-1.181,0.866s-1.708,0.414-2.762,0.414c-2.076,0-3.625-0.535-4.646-1.606
			C480.832,132.473,480.321,130.748,480.321,128.37z"/>
		<path fill="#499784" d="M493.555,134.498v-17.83c0-0.368,0.335-0.553,1.005-0.553h0.1c0.669,0,1.005,0.185,1.005,0.553v11.226h0.1
			l4.796-5.726c0.184-0.234,0.628-0.352,1.331-0.352h0.101c0.586,0,0.879,0.108,0.879,0.326c0,0.15-0.084,0.318-0.251,0.502
			l-4.671,5.525l5.173,6.127c0.151,0.168,0.226,0.302,0.226,0.401c0,0.235-0.368,0.352-1.105,0.352h-0.1
			c-0.72,0-1.172-0.108-1.356-0.326l-5.022-5.951h-0.1v5.726c0,0.368-0.335,0.552-1.005,0.552h-0.1
			C493.89,135.05,493.555,134.866,493.555,134.498z"/>
	</g>
	<g>
		<path fill="#499784" d="M224.871,325.317c0-0.201,0.113-0.477,0.339-0.829c0.226-0.352,0.406-0.527,0.54-0.527
			c0.05,0,0.259,0.105,0.628,0.314c0.368,0.209,0.887,0.423,1.557,0.641s1.436,0.326,2.298,0.326s1.599-0.276,2.21-0.829
			c0.611-0.552,0.917-1.255,0.917-2.109c0-0.854-0.28-1.531-0.841-2.034c-0.561-0.502-1.239-0.899-2.034-1.192
			c-0.795-0.293-1.595-0.606-2.398-0.941s-1.486-0.854-2.047-1.558s-0.841-1.599-0.841-2.687c0-1.39,0.51-2.507,1.532-3.353
			c1.021-0.846,2.369-1.269,4.043-1.269c0.82,0,1.699,0.15,2.637,0.452s1.406,0.661,1.406,1.08c0,0.185-0.104,0.452-0.314,0.804
			s-0.373,0.527-0.49,0.527c-0.067,0-0.243-0.084-0.527-0.251c-0.854-0.469-1.774-0.703-2.762-0.703s-1.775,0.238-2.36,0.715
			c-0.586,0.478-0.879,1.177-0.879,2.098s0.543,1.641,1.632,2.159c0.468,0.218,0.996,0.432,1.582,0.641
			c0.585,0.209,1.167,0.452,1.745,0.729c0.578,0.275,1.105,0.599,1.582,0.967s0.867,0.87,1.168,1.507
			c0.301,0.636,0.452,1.372,0.452,2.209c0,1.541-0.502,2.75-1.506,3.629c-1.005,0.879-2.277,1.318-3.817,1.318
			c-1.541,0-2.833-0.209-3.88-0.628C225.394,326.104,224.871,325.703,224.871,325.317z"/>
		<path fill="#499784" d="M237.803,320.37c0-1.256,0.172-2.335,0.515-3.239c0.343-0.904,0.807-1.599,1.394-2.084
			c1.105-0.888,2.453-1.331,4.043-1.331c0.971,0,1.842,0.117,2.612,0.352s1.155,0.502,1.155,0.804c0,0.218-0.097,0.498-0.289,0.841
			c-0.192,0.344-0.364,0.515-0.515,0.515c-0.017,0-0.046-0.008-0.088-0.024c-0.042-0.017-0.075-0.029-0.101-0.038
			c-0.025-0.008-0.054-0.021-0.088-0.038c-0.904-0.401-1.816-0.603-2.737-0.603c-2.427,0-3.641,1.6-3.641,4.797
			c0,1.774,0.297,3.056,0.892,3.842c0.594,0.787,1.595,1.181,3.001,1.181c1.021,0,1.967-0.218,2.837-0.653
			c0.05-0.017,0.104-0.037,0.164-0.063c0.058-0.025,0.096-0.038,0.113-0.038c0.167,0,0.352,0.164,0.553,0.49
			c0.201,0.326,0.301,0.59,0.301,0.791c0,0.301-0.394,0.59-1.181,0.866s-1.708,0.414-2.762,0.414c-2.076,0-3.625-0.535-4.646-1.606
			C238.314,324.473,237.803,322.748,237.803,320.37z"/>
		<path fill="#499784" d="M251.866,310.702c-0.67,0-1.005-0.185-1.005-0.553v-1.481c0-0.368,0.335-0.553,1.005-0.553h0.301
			c0.669,0,1.004,0.185,1.004,0.553v1.481c0,0.368-0.335,0.553-1.004,0.553H251.866z M250.962,326.498v-12.13
			c0-0.368,0.335-0.552,1.004-0.552h0.101c0.669,0,1.004,0.184,1.004,0.552v12.13c0,0.368-0.335,0.552-1.004,0.552h-0.101
			C251.297,327.05,250.962,326.866,250.962,326.498z"/>
		<path fill="#499784" d="M256.21,325.644c0-0.167,0.104-0.418,0.314-0.753c0.209-0.335,0.397-0.502,0.565-0.502
			c0.017,0,0.151,0.079,0.402,0.238s0.611,0.318,1.08,0.478s1.034,0.238,1.695,0.238c0.661,0,1.206-0.188,1.632-0.565
			s0.64-0.887,0.64-1.531s-0.188-1.146-0.565-1.507c-0.376-0.36-1.126-0.699-2.248-1.018c-1.122-0.317-1.934-0.724-2.436-1.218
			c-0.502-0.493-0.753-1.243-0.753-2.247c0-1.005,0.385-1.846,1.155-2.524c0.77-0.678,1.774-1.017,3.014-1.017
			c0.854,0,1.615,0.108,2.285,0.326c0.669,0.218,1.004,0.461,1.004,0.729c0,0.218-0.096,0.498-0.289,0.841
			c-0.193,0.344-0.364,0.515-0.515,0.515c-0.017,0-0.126-0.05-0.327-0.15c-0.569-0.301-1.209-0.452-1.921-0.452
			c-0.712,0-1.265,0.146-1.658,0.439c-0.394,0.293-0.59,0.675-0.59,1.143c0,0.469,0.146,0.838,0.439,1.105
			c0.292,0.268,0.791,0.511,1.494,0.728c1.573,0.486,2.641,1.018,3.202,1.595c0.561,0.578,0.841,1.448,0.841,2.612
			c0,1.163-0.415,2.122-1.243,2.875c-0.829,0.754-1.82,1.13-2.976,1.13s-2.151-0.171-2.988-0.515
			C256.629,326.293,256.21,325.962,256.21,325.644z"/>
		<path fill="#499784" d="M266.582,325.644c0-0.167,0.104-0.418,0.314-0.753c0.209-0.335,0.397-0.502,0.565-0.502
			c0.017,0,0.151,0.079,0.402,0.238s0.611,0.318,1.08,0.478s1.034,0.238,1.695,0.238c0.661,0,1.206-0.188,1.632-0.565
			s0.64-0.887,0.64-1.531s-0.188-1.146-0.565-1.507c-0.376-0.36-1.126-0.699-2.248-1.018c-1.122-0.317-1.934-0.724-2.436-1.218
			c-0.502-0.493-0.753-1.243-0.753-2.247c0-1.005,0.385-1.846,1.155-2.524c0.77-0.678,1.774-1.017,3.014-1.017
			c0.854,0,1.615,0.108,2.285,0.326c0.669,0.218,1.004,0.461,1.004,0.729c0,0.218-0.096,0.498-0.289,0.841
			c-0.193,0.344-0.364,0.515-0.515,0.515c-0.017,0-0.126-0.05-0.327-0.15c-0.569-0.301-1.209-0.452-1.921-0.452
			c-0.712,0-1.265,0.146-1.658,0.439c-0.394,0.293-0.59,0.675-0.59,1.143c0,0.469,0.146,0.838,0.439,1.105
			c0.292,0.268,0.791,0.511,1.494,0.728c1.573,0.486,2.641,1.018,3.202,1.595c0.561,0.578,0.841,1.448,0.841,2.612
			c0,1.163-0.415,2.122-1.243,2.875c-0.829,0.754-1.82,1.13-2.976,1.13s-2.151-0.171-2.988-0.515
			C267,326.293,266.582,325.962,266.582,325.644z"/>
		<path fill="#499784" d="M283.269,327.15c-1.884,0-3.324-0.568-4.319-1.707c-0.997-1.139-1.494-2.792-1.494-4.96
			s0.502-3.838,1.506-5.01c1.005-1.172,2.436-1.758,4.294-1.758s3.277,0.582,4.256,1.745c0.979,1.164,1.469,2.838,1.469,5.022
			s-0.481,3.842-1.444,4.973C286.575,326.586,285.152,327.15,283.269,327.15z M280.519,324.149c0.569,0.796,1.465,1.193,2.687,1.193
			s2.126-0.397,2.712-1.193c0.585-0.795,0.879-2.029,0.879-3.704c0-1.674-0.293-2.913-0.879-3.716
			c-0.586-0.804-1.49-1.206-2.712-1.206s-2.118,0.398-2.687,1.193c-0.569,0.795-0.854,2.034-0.854,3.717
			C279.665,322.115,279.949,323.354,280.519,324.149z"/>
		<path fill="#499784" d="M292.623,326.498v-8.814c0-1.021-0.042-1.749-0.125-2.185c-0.118-0.604-0.176-0.93-0.176-0.979
			c0-0.201,0.159-0.348,0.477-0.439c0.318-0.092,0.565-0.139,0.741-0.139s0.297,0.017,0.364,0.051
			c0.066,0.033,0.129,0.088,0.188,0.163s0.104,0.15,0.138,0.226s0.067,0.176,0.101,0.302c0.033,0.125,0.063,0.226,0.088,0.301
			s0.05,0.185,0.075,0.327c0.025,0.143,0.046,0.238,0.063,0.288c0.887-1.255,1.858-1.883,2.913-1.883
			c0.468,0,0.829,0.092,1.08,0.276c0.251,0.184,0.377,0.418,0.377,0.703c0,0.284-0.05,0.581-0.151,0.892
			c-0.101,0.31-0.218,0.464-0.352,0.464c-0.067,0-0.23-0.046-0.49-0.138c-0.26-0.092-0.569-0.139-0.929-0.139
			s-0.732,0.13-1.117,0.39c-0.386,0.26-0.67,0.515-0.854,0.766l-0.301,0.377v9.191c0,0.368-0.335,0.552-1.004,0.552h-0.101
			C292.957,327.05,292.623,326.866,292.623,326.498z"/>
	</g>
	<g>
		<path fill="#D22828" d="M262.165,259.007c-0.778,0-1.555-0.006-2.331-0.018l0.056-3.832c1.575,0.023,3.158,0.022,4.729-0.003
			l0.061,3.832C263.844,259,263.006,259.007,262.165,259.007z M254.992,258.847c-1.612-0.071-3.24-0.17-4.838-0.29l0.289-3.821
			c1.558,0.117,3.146,0.212,4.72,0.282L254.992,258.847z M269.525,258.838l-0.177-3.828c1.574-0.073,3.163-0.17,4.722-0.288
			l0.291,3.821C272.764,258.665,271.137,258.764,269.525,258.838z M245.327,258.12c-1.617-0.171-3.236-0.368-4.812-0.586
			l0.523-3.798c1.537,0.213,3.117,0.404,4.694,0.573L245.327,258.12z M279.188,258.102l-0.412-3.811
			c1.577-0.17,3.156-0.365,4.695-0.579l0.525,3.798C282.421,257.728,280.803,257.927,279.188,258.102z M235.725,256.8
			c-1.585-0.268-3.188-0.563-4.767-0.882l0.758-3.758c1.539,0.311,3.103,0.601,4.647,0.861L235.725,256.8z M288.788,256.771
			l-0.643-3.778c1.544-0.263,3.107-0.555,4.647-0.866l0.762,3.756C291.975,256.201,290.371,256.501,288.788,256.771z
			 M226.221,254.888c-1.553-0.364-3.136-0.762-4.703-1.182l0.992-3.702c1.527,0.409,3.07,0.797,4.584,1.151L226.221,254.888z
			 M298.289,254.845l-0.877-3.731c1.515-0.357,3.058-0.746,4.583-1.156l0.997,3.701
			C301.426,254.079,299.844,254.479,298.289,254.845z M216.856,252.377c-1.535-0.464-3.089-0.962-4.619-1.478l1.226-3.631
			c1.491,0.504,3.006,0.987,4.502,1.439L216.856,252.377z M307.651,252.322l-1.114-3.668c1.498-0.455,3.012-0.94,4.5-1.445
			l1.23,3.63C310.741,251.356,309.188,251.855,307.651,252.322z M207.667,249.271c-1.501-0.563-3.02-1.158-4.514-1.773l1.458-3.544
			c1.456,0.6,2.937,1.18,4.399,1.729L207.667,249.271z M316.834,249.205l-1.346-3.587c1.467-0.551,2.946-1.135,4.395-1.733
			l1.465,3.542C319.859,248.041,318.34,248.641,316.834,249.205z M198.699,245.576c-1.47-0.663-2.946-1.358-4.389-2.067l1.691-3.44
			c1.404,0.691,2.842,1.368,4.273,2.014L198.699,245.576z M325.799,245.5l-1.579-3.491c1.429-0.647,2.865-1.326,4.271-2.02
			l1.694,3.438C328.742,244.14,327.266,244.836,325.799,245.5z M189.992,241.296c-1.41-0.753-2.837-1.545-4.242-2.356l1.917-3.318
			c1.367,0.789,2.757,1.562,4.129,2.294L189.992,241.296z M334.5,241.208l-1.808-3.38c1.372-0.733,2.76-1.507,4.125-2.299
			l1.922,3.315C337.337,239.659,335.91,240.454,334.5,241.208z M181.589,236.439c-1.376-0.86-2.746-1.748-4.073-2.644l2.142-3.178
			c1.29,0.868,2.623,1.733,3.961,2.569L181.589,236.439z M342.896,236.34l-2.034-3.248c1.333-0.835,2.666-1.701,3.958-2.574
			l2.145,3.176C345.636,234.591,344.268,235.481,342.896,236.34z M173.539,231.016c-1.312-0.952-2.617-1.935-3.88-2.921l2.36-3.021
			c1.227,0.958,2.495,1.913,3.77,2.838L173.539,231.016z M165.887,225.037c-1.237-1.039-2.469-2.113-3.662-3.192l2.57-2.843
			c1.159,1.048,2.356,2.091,3.557,3.1L165.887,225.037z M358.585,224.918l-2.47-2.932c1.199-1.011,2.395-2.056,3.553-3.105
			l2.574,2.84C361.051,222.801,359.82,223.877,358.585,224.918z M365.779,218.391l-2.677-2.744c1.123-1.095,2.237-2.224,3.313-3.356
			l2.778,2.641C368.085,216.098,366.936,217.261,365.779,218.391z M151.969,211.474c-1.065-1.207-2.127-2.456-3.155-3.715
			l2.968-2.426c0.997,1.222,2.027,2.434,3.06,3.604L151.969,211.474z M372.474,211.345l-2.876-2.534
			c1.028-1.168,2.053-2.377,3.046-3.597l2.972,2.42C374.592,208.892,373.535,210.139,372.474,211.345z M145.806,203.923
			c-0.974-1.295-1.934-2.624-2.853-3.952l3.151-2.18c0.89,1.286,1.819,2.571,2.764,3.826L145.806,203.923z M378.604,203.815
			l-3.065-2.302c0.942-1.254,1.867-2.535,2.749-3.813l3.152,2.179C380.529,201.197,379.575,202.521,378.604,203.815z
			 M140.261,195.911c-0.868-1.369-1.717-2.771-2.524-4.167l3.318-1.918c0.781,1.351,1.603,2.708,2.443,4.032L140.261,195.911z
			 M384.119,195.831l-3.238-2.049c0.834-1.317,1.652-2.671,2.431-4.021l3.321,1.916C385.826,193.072,384.98,194.471,384.119,195.831
			z M135.388,187.478c-0.752-1.435-1.481-2.902-2.167-4.358l3.466-1.634c0.664,1.409,1.369,2.826,2.096,4.214L135.388,187.478z
			 M388.976,187.416l-3.397-1.774c0.728-1.392,1.431-2.81,2.091-4.211l3.467,1.632C390.455,184.513,389.728,185.978,388.976,187.416
			z M131.24,178.673c-0.625-1.489-1.227-3.011-1.787-4.524l3.594-1.331c0.541,1.462,1.122,2.932,1.726,4.371L131.24,178.673z
			 M393.115,178.615l-3.535-1.481c0.605-1.447,1.188-2.919,1.725-4.376l3.596,1.328
			C394.344,175.594,393.742,177.118,393.115,178.615z M127.864,169.554c-0.492-1.533-0.958-3.1-1.384-4.657l3.697-1.012
			c0.411,1.504,0.861,3.017,1.337,4.496L127.864,169.554z M396.489,169.479l-3.649-1.171c0.479-1.491,0.929-3.01,1.339-4.514
			l3.697,1.009C397.451,166.362,396.983,167.935,396.489,169.479z M125.297,160.171c-0.355-1.569-0.682-3.176-0.971-4.772
			l3.771-0.68c0.278,1.54,0.595,3.09,0.938,4.604L125.297,160.171z M399.056,160.067l-3.738-0.845
			c0.345-1.521,0.659-3.073,0.935-4.619l3.772,0.676C399.738,156.88,399.411,158.492,399.056,160.067z M123.568,150.586
			c-0.216-1.603-0.399-3.23-0.543-4.84l3.817-0.342c0.139,1.551,0.315,3.123,0.524,4.669L123.568,150.586z M400.778,150.467
			l-3.8-0.508c0.206-1.539,0.381-3.11,0.519-4.672l3.817,0.338C401.172,147.243,400.99,148.871,400.778,150.467z M122.697,140.886
			c-0.073-1.607-0.11-3.246-0.113-4.869l3.833-0.005c0.002,1.567,0.039,3.148,0.109,4.702L122.697,140.886z M401.766,140.766
			l-3.849-0.167c0.068-1.567,0.083-3.148,0.083-4.701V136h4v-0.103C402,137.506,401.836,139.143,401.766,140.766z M126.516,131.312
			l-3.829-0.164c0.069-1.621,0.176-3.257,0.317-4.861l3.817,0.334C126.687,128.169,126.584,129.748,126.516,131.312z
			 M397.797,130.971c-0.07-1.549-0.179-3.127-0.321-4.688l3.818-0.348c0.146,1.618,0.257,3.254,0.331,4.861L397.797,130.971z
			 M127.336,121.947l-3.799-0.503c0.212-1.602,0.464-3.221,0.748-4.814l3.773,0.674C127.784,118.84,127.541,120.402,127.336,121.947
			z M396.948,121.611c-0.211-1.551-0.458-3.112-0.736-4.642l3.771-0.685c0.289,1.586,0.545,3.204,0.763,4.81L396.948,121.611z
			 M128.988,112.682l-3.74-0.84c0.354-1.576,0.75-3.17,1.175-4.737l3.699,1.005C129.71,109.622,129.329,111.16,128.988,112.682z
			 M395.268,112.362c-0.341-1.504-0.726-3.037-1.144-4.558l3.696-1.016c0.432,1.576,0.831,3.165,1.185,4.726L395.268,112.362z
			 M131.455,103.594l-3.651-1.166c0.492-1.54,1.026-3.091,1.584-4.608l3.597,1.325C132.445,100.609,131.931,102.106,131.455,103.594
			z M392.783,103.31c-0.479-1.482-0.996-2.974-1.538-4.436l3.593-1.334c0.562,1.514,1.098,3.059,1.593,4.593L392.783,103.31z
			 M134.707,94.765l-3.536-1.479c0.619-1.481,1.283-2.977,1.973-4.448l3.469,1.628C135.946,91.888,135.305,93.334,134.707,94.765z
			 M389.514,94.505c-0.609-1.444-1.253-2.889-1.918-4.296l3.466-1.636c0.687,1.455,1.354,2.949,1.983,4.442L389.514,94.505z
			 M138.7,86.254l-3.397-1.773c0.744-1.425,1.53-2.858,2.337-4.261l3.322,1.913C140.18,83.489,139.419,84.875,138.7,86.254z
			 M385.496,85.998c-0.727-1.383-1.492-2.771-2.276-4.125l3.315-1.921c0.811,1.399,1.603,2.833,2.354,4.263L385.496,85.998z
			 M143.389,78.109l-3.24-2.047c0.858-1.358,1.758-2.721,2.674-4.05l3.156,2.175C145.091,75.474,144.22,76.794,143.389,78.109z
			 M380.771,77.843c-0.838-1.32-1.716-2.642-2.609-3.929l3.15-2.185c0.922,1.331,1.828,2.696,2.695,4.059L380.771,77.843z
			 M148.723,70.372l-3.066-2.299c0.96-1.281,1.964-2.567,2.984-3.823l2.975,2.417C150.626,67.885,149.653,69.131,148.723,70.372z
			 M375.395,70.09c-0.947-1.257-1.93-2.507-2.918-3.715l2.966-2.426c1.021,1.247,2.034,2.537,3.012,3.832L375.395,70.09z
			 M154.657,63.068l-2.878-2.53c1.059-1.204,2.161-2.412,3.276-3.589l2.782,2.637C156.754,60.728,155.685,61.899,154.657,63.068z
			 M369.414,62.775c-1.027-1.161-2.103-2.333-3.198-3.481l2.772-2.646c1.129,1.184,2.239,2.391,3.299,3.59L369.414,62.775z
			 M161.146,56.226l-2.68-2.739c1.146-1.121,2.335-2.243,3.536-3.333l2.578,2.836C163.414,54.049,162.258,55.138,161.146,56.226z
			 M362.895,55.944c-1.123-1.091-2.281-2.176-3.443-3.225l2.569-2.845c1.196,1.081,2.39,2.198,3.545,3.322L362.895,55.944z
			 M168.128,49.882l-2.472-2.929c1.231-1.039,2.498-2.071,3.766-3.065l2.366,3.016C170.556,47.869,169.325,48.872,168.128,49.882z
			 M355.893,49.622c-1.198-1.005-2.433-2.003-3.67-2.968l2.357-3.022c1.273,0.993,2.543,2.021,3.776,3.055L355.893,49.622z
			 M175.553,44.055l-2.257-3.097c1.298-0.945,2.634-1.884,3.972-2.791l2.148,3.174C178.114,42.222,176.814,43.135,175.553,44.055z
			 M348.45,43.817c-1.265-0.916-2.567-1.825-3.872-2.702l2.139-3.181c1.341,0.903,2.681,1.837,3.98,2.779L348.45,43.817z
			 M183.372,38.763l-2.037-3.247c1.363-0.855,2.761-1.7,4.155-2.509l1.925,3.314C186.058,37.11,184.698,37.931,183.372,38.763z
			 M340.616,38.548c-1.328-0.827-2.69-1.645-4.05-2.429l1.915-3.32c1.398,0.807,2.798,1.646,4.163,2.497L340.616,38.548z
			 M191.539,34.019l-1.812-3.377c1.415-0.759,2.866-1.506,4.314-2.221l1.698,3.436C194.329,32.553,192.916,33.28,191.539,34.019z
			 M332.435,33.829c-1.381-0.735-2.796-1.459-4.205-2.151l1.688-3.44c1.448,0.71,2.901,1.454,4.32,2.209L332.435,33.829z
			 M200.008,29.833l-1.583-3.49c1.468-0.666,2.966-1.316,4.451-1.931l1.466,3.541C202.896,28.553,201.438,29.185,200.008,29.833z
			 M323.954,29.667c-1.428-0.643-2.888-1.271-4.34-1.868l1.457-3.544c1.491,0.613,2.991,1.258,4.457,1.918L323.954,29.667z
			 M208.737,26.216l-1.352-3.587c1.504-0.566,3.041-1.117,4.566-1.636l1.234,3.629C211.7,25.127,210.203,25.664,208.737,26.216z
			 M315.215,26.075c-1.468-0.548-2.966-1.08-4.454-1.582l1.224-3.631c1.527,0.515,3.065,1.061,4.57,1.623L315.215,26.075z
			 M217.685,23.173l-1.117-3.667c1.533-0.466,3.101-0.917,4.661-1.338l1,3.699C220.708,22.279,219.179,22.718,217.685,23.173z
			 M306.257,23.056c-1.494-0.452-3.023-0.887-4.546-1.293l0.989-3.703c1.563,0.417,3.132,0.863,4.666,1.326L306.257,23.056z
			 M226.811,20.708l-0.881-3.73c1.568-0.371,3.162-0.72,4.735-1.041l0.763,3.756C229.895,20.005,228.34,20.346,226.811,20.708z
			 M297.126,20.615c-1.528-0.357-3.082-0.695-4.621-1.003l0.753-3.758c1.578,0.316,3.173,0.663,4.739,1.028L297.126,20.615z
			 M236.075,18.823l-0.646-3.777c1.58-0.271,3.191-0.521,4.79-0.744l0.529,3.796C239.188,18.315,237.616,18.56,236.075,18.823z
			 M287.855,18.755c-1.539-0.26-3.112-0.5-4.674-0.712l0.519-3.797c1.601,0.219,3.213,0.464,4.792,0.73L287.855,18.755z
			 M245.44,17.517l-0.412-3.81c1.587-0.171,3.211-0.322,4.826-0.446l0.295,3.821C248.574,17.204,246.989,17.351,245.44,17.517z
			 M254.869,16.792l-0.178-3.829c1.6-0.075,3.229-0.126,4.844-0.152l0.063,3.832C258.022,16.668,256.431,16.719,254.869,16.792z
			 M269.056,16.772c-1.562-0.068-3.152-0.114-4.728-0.135l0.052-3.833c1.614,0.022,3.244,0.069,4.844,0.14L269.056,16.772z"/>
		<polygon fill="#D22828" points="253.385,15.5 253.222,5.719 264.599,10.421 276.058,15.123 264.803,20.202 253.547,25.283 		"/>
		<polygon fill="#D22828" points="368.896,211.422 375.37,217.684 364.902,222.029 354.38,226.428 358.401,215.794 362.421,205.159 
					"/>
		<polygon fill="#D22828" points="174.534,230.119 168.183,236.505 163.983,225.977 159.732,215.395 170.308,219.563 
			180.887,223.732 		"/>
	</g>
	<g>
		<circle fill="#F7ED5A" stroke="#D22828" stroke-width="5" stroke-miterlimit="10" cx="131.587" cy="124.799" r="55.254"/>
		<g>
			<path fill="#FFFFFF" d="M125.347,105.757c0.555-1.427,0.733-3.427-1.175-5.334c-3.495-3.496-6.758-0.006-6.758-0.006
				s-17.925,17.432-18.609,19.446c-0.684,2.014,0,16.714,0,16.714l18.462,19.147c0,0,2.85,3.342,6.497,3.342
				c3.646,0,4.752-0.452,6.743-2.431c2.449-2.434,29.354-29.174,29.354-29.174s5.704-4.979,3.51-8.813
				c-1.544-2.697-4.317-3.191-6.14-1.823c-1.314,0.985-4.014,3.314-2.725,1.823c1.813-2.1,6.359-6.407,7.776-8.168
				c1.925-2.389,2.165-4.103,0.684-5.927c-1.788-2.201-4.064-2.696-6.42-0.873c-0.897,0.695-3.035,2.811-2.432,2.077
				c1.605-1.954,5.591-7.556,1.976-10.207c-3.203-2.347-7.943,1.483-9.932,3.517c-1.1,1.126,0.56-0.452,0.61-2.032
				c0.034-1.091-0.364-2.366-1.809-3.566c-2.394-1.988-5.62-0.133-7.977,1.855c-2.319,1.953-10.219,9.497-10.219,9.497
				S124.885,106.94,125.347,105.757z"/>
			<path fill="#D22828" d="M161.042,114.495c1.12-1.146,2.091-2.164,2.66-2.871c1.572-1.953,3.354-4.928,0.679-8.22
				c-1.789-2.201-3.688-2.664-4.966-2.664c-0.126,0-0.251,0.005-0.376,0.012c0.291-1.001,0.424-2.027,0.299-3.021
				c-0.188-1.486-0.938-2.748-2.17-3.652c-0.988-0.724-2.127-1.091-3.389-1.091c-1.964,0-3.92,0.921-5.525,1.981
				c-0.338-0.938-0.979-1.95-2.129-2.904c-2.587-2.15-6.253-1.565-10.318,1.862c-1.682,1.417-6.118,5.598-8.588,7.942
				c-0.334-0.98-0.923-1.903-1.758-2.738c-1.386-1.385-2.932-2.088-4.597-2.088c-2.714,0-4.578,1.911-4.721,2.066
				c-8.32,8.09-18.383,18.158-19.064,20.165c-0.718,2.112-0.305,12.863-0.095,17.387l0.032,0.687l18.909,19.608
				c0.427,0.483,3.623,3.932,7.839,3.932c4.057,0,5.632-0.581,8.028-2.961l29.315-29.135c2.534-2.232,6.15-7.025,3.846-11.051
				C164.016,116.103,162.617,114.961,161.042,114.495z M158.662,126.087l-29.441,29.255c-1.599,1.588-2.197,1.899-5.457,1.899
				c-2.739,0-5.089-2.679-5.108-2.701l-18.06-18.732c-0.287-6.517-0.393-13.95-0.079-15.294c0.979-1.651,9.945-10.78,18.218-18.827
				c0.01-0.011,0.97-0.972,2.129-0.972c0.671,0,1.331,0.356,2.019,1.044c0.903,0.903,1.197,1.886,0.907,2.988l-10.027,10.555
				l-0.13,0.337c-0.378,0.981-0.424,2.461,0.691,3.404c1.262,1.067,4.278,3.948,5.032,7.643c0.936,4.584-2.834,8.855-2.872,8.897
				l1.354,1.222l1.351,1.225c0.207-0.228,5.05-5.658,3.741-12.074c-0.847-4.146-3.634-7.326-5.594-9.118l8.105-8.532
				c0.679-0.046,1.311-0.544,2.637-2.031c0.697-0.664,7.93-7.745,10.081-9.557c1.742-1.469,3.32-2.277,4.445-2.277
				c0.46,0,0.838,0.137,1.192,0.432c0.798,0.663,1.175,1.351,1.151,2.105c-0.005,0.141-0.076,0.552-0.589,1.315L127.6,115.119
				l2.584,2.572l16.838-16.906c0.089-0.081,0.164-0.157,0.228-0.225l0.212-0.219c1.803-1.843,4.456-3.705,6.317-3.705
				c0.482,0,0.875,0.122,1.232,0.384c0.428,0.313,0.646,0.673,0.708,1.165c0.201,1.6-1.192,4.049-2.595,5.88l-18.893,18.325
				l2.54,2.617l17.948-17.409c0.369-0.164,0.739-0.503,1.428-1.134c0.492-0.452,1.166-1.07,1.516-1.343
				c0.629-0.487,1.22-0.733,1.753-0.733c0.881,0,1.647,0.718,2.135,1.319c0.578,0.711,1.124,1.386-0.688,3.635
				c-0.689,0.855-2.302,2.496-3.863,4.077c-1.173,1.187-2.374,2.413-3.268,3.388l-0.011-0.011l-12.762,12.314l2.532,2.624
				l11.094-10.703c0.558-0.129,1.07-0.572,2.513-1.726c0.438-0.35,0.882-0.766,1.227-1.024c0.326-0.244,0.711-0.372,1.114-0.372
				c0.896,0,1.751,0.598,2.349,1.643C162.964,121.609,159.845,125.046,158.662,126.087z"/>
		</g>
	</g>
	<g>
		<circle fill="#FF931E" stroke="#D22828" stroke-width="5" stroke-miterlimit="10" cx="387.414" cy="125.757" r="55.253"/>
		<g>
			<path fill="#FFFFFF" d="M359.168,133.769c0.174-1.807,1.219-12.636,1.633-16.931c0.105-1.085,1.289-2.917,1.289-2.917
				s9.429-9.734,10.413-10.81c0.908-0.99,3.229-4.139,6.063-2.339c1.801,1.143,3.283,3.298,3.951,3.025
				c1.436-0.589,3.887-4.001,4.798-5.154c0.357-0.456,4.609-5.463,8.597-1.835c4.593,4.18,2.15,6.989,2.15,6.989
				s3.494-3.501,7.345,0.179c4.526,4.322,0.897,8.409,0.897,8.409s3.381-2.019,6.809,1.983c4.547,5.306,0.762,7.797,0,8.96
				c-0.761,1.164,3.048-1.256,5.914,2.329c2.867,3.583,0.649,5.555-1.612,8.242c-1.905,2.264-24.773,23.631-25.804,24.55
				c-1.031,0.918-3.226,1.611-5.375,1.253c-2.15-0.357-3.179-0.825-5.544-2.943s-19.351-17.338-20.618-18.424
				C358.835,137.271,358.95,136.032,359.168,133.769z"/>
			<path fill="#D22828" d="M420.287,123.575c-1.132-1.415-2.537-2.276-4.192-2.566c1.055-1.85,1.651-4.79-1.755-8.765
				c-1.861-2.171-3.773-2.867-5.227-3.021c0.508-2.139,0.152-4.868-2.59-7.489c-1.48-1.413-3.107-2.13-4.84-2.13
				c-0.512,0-0.995,0.064-1.44,0.169c-0.256-1.533-1.161-3.337-3.243-5.233c-1.263-1.149-2.68-1.731-4.209-1.731
				c-3.673,0-6.438,3.374-6.74,3.76c-0.135,0.168-0.3,0.384-0.489,0.632c-1.418,1.849-2.463,3.071-3.128,3.656
				c-0.098-0.072-0.171-0.128-0.234-0.177c-0.117-0.11-0.239-0.223-0.346-0.325c-0.662-0.635-1.485-1.426-2.422-2.02
				c-0.832-0.528-1.711-0.795-2.612-0.795c-2.524,0-4.368,2.109-5.254,3.123l-0.25,0.283c-0.96,1.045-10.288,10.68-10.383,10.777
				l-0.196,0.246c-0.327,0.507-1.407,2.27-1.54,3.638l-1.633,16.932c-0.233,2.421-0.418,4.334,1.462,5.944
				c0.53,0.455,4.403,3.9,19.845,17.734l0.747,0.667c2.479,2.221,3.786,2.906,6.354,3.333c0.471,0.079,0.958,0.118,1.446,0.118
				c2.032,0,4.051-0.674,5.269-1.759c1.241-1.106,23.968-22.342,25.963-24.714l0.538-0.629
				C421.223,130.863,423.757,127.912,420.287,123.575z M411.89,114.342c2.97,3.466,1.662,4.94,0.509,6.242
				c-0.235,0.268-0.457,0.517-0.633,0.786c-0.11,0.169-0.185,0.33-0.241,0.483l-12.019,9.473c-1.03,0.813-4.639,1.576-6.063-0.021
				c-1.085-1.223-1.064-3.527-0.897-4.878c0.053-0.046,0.11-0.078,0.164-0.126c0.886-0.822,12.955-12.176,14.528-13.656
				c0.189-0.081,0.627-0.232,1.203-0.232C409.633,112.413,410.793,113.063,411.89,114.342z M401.684,102.831
				c0.874,0,1.753,0.415,2.612,1.237c3.121,2.979,1.305,5.566,0.835,6.132c-0.997,0.938-13.704,12.894-14.614,13.736
				c-1.078,0.999-2.79,0.752-4.469-0.641c-0.989-0.82-1.345-1.989-1.444-3.012c0.701,0.221,1.435,0.396,2.205,0.498
				c2.545,0.336,4.998-0.741,6.404-2.82c1.361-2.015,1.455-4.491,0.253-6.625c-0.169-0.299-0.391-0.62-0.633-0.947l6.373-6.531
				C399.229,103.836,400.304,102.831,401.684,102.831z M388.12,99.164c0.18-0.234,0.336-0.438,0.463-0.599
				c0.517-0.657,2.399-2.529,4.208-2.529c0.712,0,1.377,0.29,2.037,0.89c3.169,2.884,2.16,4.535,2.025,4.725l-6.156,6.309
				c-1.784-1.807-3.972-3.677-5.711-5.087C385.988,101.902,387.043,100.568,388.12,99.164z M390.54,156.168
				c-0.525,0.469-1.767,0.942-3.123,0.942c-0.313,0-0.62-0.024-0.915-0.074c-1.747-0.289-2.499-0.553-4.732-2.554l-0.746-0.668
				c-12.416-11.121-19.11-17.104-19.899-17.779c-0.534-0.458-0.577-0.845-0.351-3.188l1.633-16.93
				c0.036-0.382,0.518-1.36,0.958-2.069c1.132-1.17,9.387-9.696,10.327-10.724l0.302-0.339c0.617-0.706,1.767-2.021,2.825-2.021
				c0.282,0,0.572,0.095,0.884,0.294c0.665,0.421,1.33,1.06,1.918,1.625c0.604,0.577,1.129,1.081,1.686,1.382
				c2.908,2.274,8.062,6.573,9.349,8.854c0.598,1.063,0.557,2.241-0.115,3.235c-0.725,1.074-1.962,1.61-3.307,1.431
				c-4.658-0.619-8.007-4.675-8.037-4.714l-2.456-2.652l-1.159,1.543c-0.464,0.619-2.7,3.819-1.181,6.168
				c0.314,0.487,0.825,0.984,1.47,1.614c1.938,1.893,4.868,4.75,4.124,8.582c-1.021,5.258-2.562,6.957-2.578,6.973l2.274,2.288
				c0.227-0.221,2.244-2.329,3.471-8.646c0.268-1.379,0.221-2.655-0.03-3.827c0.253,0.3,0.53,0.591,0.857,0.864
				c1.606,1.332,3.341,2.005,4.963,2.005c0.094,0,0.185-0.02,0.276-0.025c-0.005,1.769,0.337,4.035,1.806,5.688
				c1.308,1.472,3.211,2.019,5.084,2.019c0.647,0,1.288-0.07,1.901-0.186c-0.219,2.143-0.086,4.969,1.677,6.744
				c1.188,1.197,2.691,1.618,4.195,1.642C397.636,149.573,391.223,155.56,390.54,156.168z M381.37,118.833
				c-0.044,0.625-0.045,1.394,0.075,2.222c-1.068-1.616-2.376-2.895-3.321-3.818c-0.4-0.39-0.899-0.875-1.009-1.043
				c-0.047-0.123-0.007-0.379,0.098-0.699C377.939,116.271,379.387,117.66,381.37,118.833z M416.738,131.132l-0.558,0.653
				c-0.607,0.723-3.688,3.705-7.516,7.352c-1.401,0.742-5.111,2.197-6.681,0.615c-1.151-1.16-0.858-4.183-0.465-5.905l12.257-9.66
				c0.042-0.004,0.077-0.007,0.121-0.012c0.24-0.022,0.54-0.053,0.881-0.053c1.256,0,2.179,0.452,2.99,1.466
				C419.491,127.742,418.934,128.575,416.738,131.132z"/>
		</g>
	</g>
	<g>
		<circle fill="#49C0A7" stroke="#D22828" stroke-width="5" stroke-miterlimit="10" cx="265.729" cy="246.484" r="55.253"/>
		<g>
			<path fill="#FFFFFF" d="M258.376,223.173c1.846-0.051,3.643,0.357,5.572,1.711c2.139,1.502,2.434,2.192,2.898,1.847
				c0.857-0.636,19.027-13.87,19.027-13.87s5.062-3.405,8.364,0.345c2.722,3.092,1.065,6.791-1.49,8.766
				c-2.555,1.972-23.374,18.045-23.374,18.045s27.392,1.16,29.261,1.287c1.869,0.13,5.176,1.072,5.629,6.221
				c0.493,5.606-4.168,6.477-6.703,6.477c-2.536,0-19.421,0-19.421,0s3.759-0.027,3.953,5.297c0.171,4.661-6.402,4.966-6.402,4.966
				s1.934,1.542,1.418,5.751c-0.334,2.736-1.998,5.582-5.736,5.582c-2.813,0-31.323,0.126-33.45-0.002
				c-2.126-0.129-7.906-2.577-8.078-7.391c-0.171-4.813-0.858-27.672-0.858-27.672s15.289-13.924,16.418-14.87
				C248.429,223.129,256.53,223.225,258.376,223.173z"/>
			<path fill="#D22828" d="M298.742,239.762c-1.371-0.096-15.733-0.714-25.066-1.111l20.019-15.456
				c1.959-1.514,3.253-3.702,3.459-5.855c0.178-1.865-0.428-3.647-1.755-5.155c-1.317-1.496-3.06-2.287-5.04-2.287
				c-2.819,0-5.246,1.611-5.395,1.713c-0.671,0.488-14.948,10.888-18.349,13.374c-0.391-0.325-0.966-0.794-1.779-1.366
				c-1.939-1.361-3.896-1.996-6.161-1.996l-0.913,0.018c-4.73,0.079-10.523,0.472-13.352,2.842
				c-1.14,0.955-15.841,14.347-16.465,14.916l-0.527,0.478l0.022,0.711c0.006,0.229,0.688,22.927,0.857,27.688
				c0.209,5.855,6.904,8.735,9.531,8.895c0.286,0.017,1.153,0.069,11.977,0.069c6.233,0,13.438-0.016,17.803-0.026l3.764-0.009
				c4.741,0,6.864-3.554,7.271-6.879c0.253-2.072,0.085-3.648-0.2-4.784c1.231-0.242,2.707-0.766,3.778-1.876
				c0.984-1.021,1.475-2.384,1.416-3.939c-0.062-1.696-0.519-3.038-1.178-4.082c5.504,0.169,13.47,0.396,15.139,0.357
				c4.12-0.103,8.257-2.617,8.212-8.006C305.76,241.863,301.165,239.928,298.742,239.762z M286.733,214.146
				c0.017-0.011,1.767-1.155,3.625-1.155c1.096,0,1.985,0.403,2.718,1.235c0.757,0.862,1.094,1.811,0.997,2.817
				c-0.126,1.316-0.975,2.701-2.271,3.701l-21.409,16.53c-0.397,0.307-0.674,0.605-0.876,0.896
				c-0.345-3.807-1.05-8.304-1.404-10.451C270.758,225.783,286.611,214.236,286.733,214.146z M275.573,269.948
				c-0.153,1.25-0.868,4.16-4.2,4.16l-3.772,0.009c-2.097,0.005-4.852,0.012-7.835,0.017l0.009-0.078
				c-0.354-0.046-3.462-0.566-3.462-3.964c0-2.382,1.365-3.809,1.969-4.327c0.2,0.016,0.399,0.03,0.61,0.03
				c2.964,0,13.211-0.035,16.384-0.048C275.534,266.455,275.835,267.805,275.573,269.948z M279.995,261.691
				c-0.808,0.838-2.454,1.309-3.709,1.309c-0.002,0-0.004,0-0.006,0L276,262.699v-0.048c0,0-0.349,0.002-1.107,0.004l-1.806-0.066
				l0.078,0.072c-4.268,0.016-11.809,0.04-14.286,0.04c-3.197,0-3.44-3.024-3.44-3.952c0-2.238,1.849-3.156,3.576-3.269
				c2.443-0.16,14.401-0.047,18.026-0.009c0.257,0.033,3.364,0.585,3.505,4.451C280.575,260.651,280.398,261.271,279.995,261.691z
				 M297.523,252.905c-0.117,0.003-0.334,0.006-0.521,0.006c-3.215,0-16.002-0.39-19.002-0.5v-0.022
				c-1-0.006-16.257-0.19-19.245,0.003c-3.809,0.249-6.434,2.863-6.434,6.357c0,2.296,0.888,4.598,2.753,5.919
				c-0.926,1.186-1.862,2.985-1.862,5.424c0,1.702,0.483,3.025,1.188,4.05c-1.553,0.002-3.101,0.003-4.596,0.003
				c-8.87,0-11.305-0.036-11.789-0.064c-1.498-0.091-6.489-2.113-6.625-5.917c-0.152-4.275-0.719-23.053-0.836-26.959
				c5.403-4.921,14.999-13.645,15.844-14.353c1.561-1.307,5.401-2.02,11.417-2.12l0.861-0.015c1.619,0,2.97,0.44,4.384,1.434
				c0.761,0.533,1.274,0.959,1.649,1.271c0.087,0.073,0.167,0.135,0.25,0.202c0.407,2.425,1.858,11.388,1.647,14.943
				c-0.167,2.804-1.292,4.156-3.647,4.384c-1.467,0.142-3.294-0.161-3.732-2.398c-0.151-0.773-0.223-2.844-0.287-4.67
				c-0.103-2.98-0.187-4.857-0.453-5.791c-0.266-0.931-1.055-1.523-2.058-1.545c-1.915-0.043-5.184,2.37-5.666,3.823
				c-0.139,0.416-0.175,0.948-0.245,2.112c-0.128,2.14-0.395,6.594-1.951,8.254c-1.786,1.906-6.552,2.813-8.238,3l0.341,3.076
				c0.735-0.082,7.268-0.884,10.154-3.962c2.32-2.474,2.607-7.3,2.782-10.183c0.028-0.472,0.062-1.042,0.083-1.254
				c0.317-0.405,1.239-1.096,1.961-1.486c0.095,1.084,0.152,2.745,0.198,4.063c0.074,2.13,0.144,4.143,0.342,5.156
				c0.659,3.367,3.356,5.243,7.064,4.885c2.256-0.218,6.092-1.454,6.438-7.281c0.033-0.54,0.032-1.184,0.006-1.895
				c0.777,0.747,2.048,0.81,2.542,0.831c7.42,0.315,24.835,1.062,26.288,1.16c0.425,0.03,4.15,0.425,4.189,5.174
				C302.747,251.526,300.054,252.845,297.523,252.905z"/>
		</g>
	</g>
</g>
</svg>
