<?xml version="1.0" encoding="utf-8"?>
<!-- Generator: Adobe Illustrator 16.0.0, SVG Export Plug-In . SVG Version: 6.00 Build 0)  -->
<!DOCTYPE svg PUBLIC "-//W3C//DTD SVG 1.1//EN" "http://www.w3.org/Graphics/SVG/1.1/DTD/svg11.dtd">
<svg version="1.1" xmlns="http://www.w3.org/2000/svg" xmlns:xlink="http://www.w3.org/1999/xlink" x="0px" y="0px"
	 width="81.333px" height="77.207px" viewBox="0 0 81.333 77.207" enable-background="new 0 0 81.333 77.207" xml:space="preserve">
<g id="Layer_1">
</g>
<g id="Layer_2">
	<g>
		<path fill="#FFFFFF" d="M56.734,70.428c-4.811,0-9.642-1.673-13.326-4.552c-2.925,1.366-6.533,2.177-9.895,2.177
			c-11.229,0-21.151-8.752-22.15-19.118c-5.365-3.44-8.187-9.468-8.187-17.554c0-11.099,10.389-20.834,22.232-20.834
			c3.814,0,7.469,1.013,10.691,2.945c3.221-1.933,6.898-2.945,10.712-2.945c11.488,0,20.856,9.346,20.856,20.834
			c0,0.08,0,0.16,0,0.241c6,3.689,10.098,10.403,10.098,17.974C77.765,61.083,68.318,70.428,56.734,70.428z"/>
		<path fill="#D22828" d="M56.734,70.428c-4.811,0-9.642-1.673-13.326-4.552c-2.925,1.366-6.533,2.177-9.895,2.177
			c-11.229,0-21.151-8.752-22.15-19.118c-5.365-3.44-8.187-9.468-8.187-17.554c0-11.099,10.389-20.834,22.232-20.834
			c3.814,0,7.469,1.013,10.691,2.945c3.221-1.933,6.898-2.945,10.712-2.945c11.488,0,20.856,9.346,20.856,20.834
			c0,0.08,0,0.16,0,0.241c6,3.689,10.098,10.403,10.098,17.974C77.765,61.083,68.318,70.428,56.734,70.428z M44.209,58.549
			l1.674,1.657c2.732,2.704,6.789,4.318,10.851,4.318c8.329,0,15.105-6.697,15.105-14.929c0-5.946-3.263-11.145-8.515-13.564
			l-1.931-0.892l0.233-2.114c0.062-0.555,0.092-1.107,0.092-1.645c0-8.233-6.697-14.931-14.931-14.931
			c-3.246,0-6.332,1.022-8.923,2.959l-1.766,1.318l-1.767-1.318c-2.592-1.937-5.678-2.959-8.924-2.959
			c-8.699,0-16.329,6.977-16.329,14.931c0,6.547,2.425,10.977,6.732,13.166l1.855,0.822v1.81c0,7.993,7.389,14.971,16.087,14.971
			c3.065,0,6.363-0.917,8.587-2.334L44.209,58.549z"/>
	</g>
</g>
</svg>
