<?xml version="1.0" encoding="utf-8"?>
<!-- Generator: Adobe Illustrator 16.0.0, SVG Export Plug-In . SVG Version: 6.00 Build 0)  -->
<!DOCTYPE svg PUBLIC "-//W3C//DTD SVG 1.1//EN" "http://www.w3.org/Graphics/SVG/1.1/DTD/svg11.dtd">
<svg version="1.1" xmlns="http://www.w3.org/2000/svg" xmlns:xlink="http://www.w3.org/1999/xlink" x="0px" y="0px"
	 width="81.333px" height="77.207px" viewBox="0 0 81.333 77.207" enable-background="new 0 0 81.333 77.207" xml:space="preserve">
<g id="Layer_1">
</g>
<g id="Layer_2">
	<path fill="#FFFFFF" d="M42.682,73.594c0,0-0.001,0-0.002,0c-0.171,0-0.339-0.114-0.504-0.134c-0.166,0.02-0.335-0.021-0.506-0.021
		c-5.12,0-15.803-12.677-20.16-18.116C17.098,49.816,6.836,36.166,6.836,28.527c0-13.021,7.133-20.706,19.571-21.073
		c7.617-0.265,12.357,4.429,15.48,7.489c0.082,0.079,0.164,0.157,0.245,0.237c0.26-0.274,0.529-0.563,0.801-0.852
		c3.371-3.6,7.986-8.528,14.647-8.528c11.923,0,19.934,9.128,19.934,22.712c0,7.642-10.262,21.382-14.674,26.89
		C58.485,60.841,47.802,73.594,42.682,73.594z"/>
	<path fill="#D22828" d="M42.682,73.594c0,0-0.001,0-0.002,0c-0.171,0-0.339-0.114-0.504-0.134c-0.166,0.02-0.335-0.021-0.506-0.021
		c-5.12,0-15.803-12.677-20.16-18.116C17.098,49.816,6.836,36.166,6.836,28.527c0-13.021,7.133-20.706,19.571-21.073
		c7.617-0.265,12.357,4.429,15.48,7.489c0.082,0.079,0.164,0.157,0.245,0.237c0.26-0.274,0.529-0.563,0.801-0.852
		c3.371-3.6,7.986-8.528,14.647-8.528c11.923,0,19.934,9.128,19.934,22.712c0,7.642-10.262,21.382-14.674,26.89
		C58.485,60.841,47.802,73.594,42.682,73.594z M42.175,66.477l0.877,0.696c5.897-3.412,28.527-29.948,28.527-38.66
		c0-8.109-3.677-16.777-13.999-16.777c-4.088,0-7.54,3.688-10.313,6.649c-1.13,1.205-2.196,2.345-3.246,3.177l-1.846,1.466
		l-1.846-1.466c-0.862-0.685-1.704-1.509-2.596-2.383c-2.777-2.721-5.925-5.803-10.799-5.803l-0.354,0.005
		c-9.164,0.269-13.81,5.36-13.81,15.132c0,8.711,22.629,35.247,28.526,38.66L42.175,66.477z"/>
</g>
</svg>
