<?xml version="1.0" encoding="utf-8"?>
<!-- Generator: Adobe Illustrator 16.0.0, SVG Export Plug-In . SVG Version: 6.00 Build 0)  -->
<!DOCTYPE svg PUBLIC "-//W3C//DTD SVG 1.1//EN" "http://www.w3.org/Graphics/SVG/1.1/DTD/svg11.dtd">
<svg version="1.1" xmlns="http://www.w3.org/2000/svg" xmlns:xlink="http://www.w3.org/1999/xlink" x="0px" y="0px"
	 width="81.333px" height="77.207px" viewBox="0 0 81.333 77.207" enable-background="new 0 0 81.333 77.207" xml:space="preserve">
<g id="Layer_1">
</g>
<g id="Layer_2">
	<g>
		<path fill="#FFFFFF" d="M9.189,46.955c0.182-1.886,1.272-13.188,1.705-17.671c0.11-1.132,1.346-3.044,1.346-3.044
			s9.84-10.159,10.868-11.281c0.948-1.034,3.368-4.319,6.328-2.441c1.88,1.192,3.427,3.441,4.124,3.156
			c1.498-0.613,4.057-4.176,5.007-5.379c0.374-0.475,4.812-5.701,8.973-1.915c4.793,4.362,2.244,7.294,2.244,7.294
			s3.647-3.653,7.666,0.188c4.724,4.511,0.937,8.775,0.937,8.775s3.528-2.105,7.106,2.07c4.745,5.538,0.795,8.137,0,9.352
			s3.18-1.311,6.172,2.431c2.991,3.74,0.678,5.798-1.683,8.603c-1.988,2.362-25.855,24.662-26.931,25.621
			c-1.076,0.958-3.366,1.683-5.61,1.309c-2.244-0.373-3.317-0.861-5.786-3.072S11.458,52.854,10.135,51.721
			C8.841,50.611,8.961,49.317,9.189,46.955z"/>
		<path fill="#D22828" d="M72.977,36.316c-1.181-1.478-2.648-2.375-4.375-2.679c1.101-1.93,1.723-4.999-1.832-9.147
			c-1.942-2.266-3.938-2.992-5.454-3.152c0.529-2.232,0.159-5.081-2.703-7.816c-1.545-1.475-3.243-2.223-5.052-2.223
			c-0.534,0-1.038,0.066-1.503,0.176c-0.268-1.6-1.213-3.482-3.386-5.461c-1.317-1.199-2.796-1.807-4.393-1.807
			c-3.833,0-6.719,3.521-7.034,3.924c-0.141,0.176-0.313,0.4-0.511,0.66c-1.479,1.93-2.571,3.205-3.265,3.816
			c-0.102-0.076-0.179-0.135-0.244-0.186c-0.123-0.115-0.25-0.232-0.361-0.339c-0.691-0.663-1.55-1.488-2.527-2.108
			c-0.869-0.551-1.786-0.83-2.728-0.83c-2.633,0-4.557,2.201-5.482,3.26l-0.261,0.295c-1.001,1.092-10.738,11.146-10.836,11.248
			l-0.205,0.257c-0.342,0.529-1.469,2.368-1.607,3.797l-1.705,17.67c-0.244,2.527-0.436,4.523,1.526,6.205
			c0.553,0.475,4.595,4.07,20.711,18.509l0.779,0.696c2.587,2.317,3.951,3.033,6.632,3.479c0.49,0.083,0.999,0.123,1.509,0.123
			c2.121,0,4.228-0.703,5.499-1.835c1.295-1.155,25.015-23.318,27.097-25.794l0.561-0.656
			C73.954,43.923,76.598,40.843,72.977,36.316z M64.213,26.68c3.099,3.617,1.734,5.156,0.531,6.516
			c-0.246,0.278-0.478,0.539-0.661,0.819c-0.115,0.177-0.192,0.345-0.251,0.505l-12.545,9.887c-1.075,0.848-4.84,1.646-6.326-0.022
			c-1.133-1.275-1.111-3.681-0.938-5.09c0.055-0.048,0.116-0.082,0.171-0.132c0.925-0.858,13.521-12.708,15.164-14.253
			c0.198-0.084,0.654-0.242,1.255-0.242C61.858,24.667,63.068,25.345,64.213,26.68z M53.561,14.666c0.912,0,1.829,0.434,2.727,1.291
			c3.257,3.109,1.362,5.81,0.872,6.399c-1.041,0.979-14.304,13.458-15.253,14.337c-1.126,1.043-2.912,0.785-4.664-0.668
			c-1.032-0.856-1.403-2.076-1.508-3.144c0.732,0.23,1.497,0.413,2.302,0.52c2.656,0.351,5.217-0.773,6.684-2.943
			c1.421-2.103,1.52-4.688,0.264-6.914c-0.176-0.312-0.407-0.646-0.66-0.989l6.652-6.816C51,15.715,52.121,14.666,53.561,14.666z
			 M39.406,10.839c0.187-0.244,0.35-0.456,0.482-0.624c0.539-0.686,2.505-2.641,4.392-2.641c0.743,0,1.438,0.303,2.126,0.929
			c3.308,3.01,2.255,4.733,2.115,4.931l-6.426,6.584c-1.862-1.885-4.146-3.836-5.961-5.309
			C37.18,13.697,38.282,12.305,39.406,10.839z M41.931,70.333c-0.549,0.489-1.844,0.983-3.26,0.983
			c-0.326,0-0.647-0.025-0.955-0.077c-1.823-0.303-2.608-0.577-4.939-2.666l-0.778-0.696C19.041,56.27,12.054,50.025,11.23,49.32
			c-0.557-0.478-0.602-0.882-0.366-3.326l1.705-17.67c0.038-0.397,0.541-1.419,1-2.159c1.182-1.221,9.797-10.12,10.779-11.191
			l0.313-0.354c0.645-0.736,1.845-2.109,2.949-2.109c0.296,0,0.599,0.1,0.924,0.307c0.693,0.439,1.388,1.105,2.001,1.695
			c0.63,0.604,1.179,1.129,1.759,1.442c3.035,2.374,8.414,6.86,9.758,9.242c0.624,1.108,0.581,2.338-0.12,3.376
			c-0.757,1.121-2.048,1.681-3.452,1.493c-4.861-0.646-8.355-4.879-8.388-4.919l-2.563-2.769l-1.21,1.61
			c-0.483,0.646-2.817,3.986-1.231,6.438c0.328,0.508,0.86,1.027,1.534,1.685c2.022,1.975,5.08,4.957,4.304,8.957
			c-1.065,5.487-2.673,7.261-2.69,7.277l2.374,2.387c0.235-0.229,2.342-2.43,3.622-9.022c0.279-1.439,0.23-2.771-0.032-3.994
			c0.265,0.313,0.554,0.617,0.896,0.901c1.676,1.391,3.486,2.093,5.18,2.093c0.098,0,0.191-0.021,0.288-0.026
			c-0.005,1.847,0.352,4.212,1.885,5.937c1.364,1.536,3.351,2.107,5.306,2.107c0.676,0,1.344-0.074,1.984-0.194
			c-0.229,2.236-0.089,5.186,1.75,7.039c1.24,1.249,2.81,1.689,4.378,1.713C49.336,63.45,42.643,69.698,41.931,70.333z
			 M32.361,31.367c-0.046,0.652-0.047,1.455,0.078,2.319c-1.115-1.688-2.479-3.021-3.467-3.985
			c-0.418-0.407-0.938-0.913-1.053-1.089c-0.048-0.129-0.007-0.396,0.102-0.729C28.781,28.693,30.291,30.143,32.361,31.367z
			 M69.274,44.203l-0.582,0.683c-0.635,0.754-3.849,3.866-7.844,7.672c-1.464,0.774-5.335,2.294-6.973,0.643
			c-1.202-1.211-0.896-4.365-0.485-6.164l12.792-10.082c0.044-0.004,0.08-0.007,0.126-0.012c0.251-0.023,0.564-0.055,0.919-0.055
			c1.312,0,2.274,0.472,3.122,1.53C72.146,40.666,71.565,41.535,69.274,44.203z"/>
	</g>
</g>
</svg>
