<?xml version="1.0" encoding="utf-8"?>
<!-- Generator: Adobe Illustrator 16.0.0, SVG Export Plug-In . SVG Version: 6.00 Build 0)  -->
<!DOCTYPE svg PUBLIC "-//W3C//DTD SVG 1.1//EN" "http://www.w3.org/Graphics/SVG/1.1/DTD/svg11.dtd">
<svg version="1.1" xmlns="http://www.w3.org/2000/svg" xmlns:xlink="http://www.w3.org/1999/xlink" x="0px" y="0px"
	 width="81.333px" height="77.207px" viewBox="0 0 81.333 77.207" enable-background="new 0 0 81.333 77.207" xml:space="preserve">
<g id="Layer_1">
</g>
<g id="Layer_2">
	<g>
		<path fill="#FFFFFF" d="M77.134,30.559L52.372,26.96L41.297,4.521L30.224,26.96L5.46,30.559L23.38,48.024l-4.23,24.661
			l22.148-11.644l22.148,11.644l-4.231-24.661L77.134,30.559z"/>
		<path fill="#D22828" d="M77.134,30.559L52.372,26.96L41.297,4.521L30.224,26.96L5.46,30.559L23.38,48.024l-4.23,24.661
			l22.148-11.644l22.148,11.644l-4.231-24.661L77.134,30.559z M41.297,55.56l-15.703,8.255l2.998-17.485L15.89,33.945l17.556-2.55
			l7.852-15.908l7.851,15.908l17.558,2.55L54.002,46.329L57,63.814L41.297,55.56z"/>
	</g>
</g>
</svg>
